<svg xmlns="http://www.w3.org/2000/svg" viewBox="0 0 400 272"><circle cx="200" cy="136" r="104" fill="#fff"/><path d="M200 38c54.04 0 98 43.96 98 98s-43.96 98-98 98-98-43.96-98-98 43.96-98 98-98m0-12C139.25 26 90 75.25 90 136s49.25 110 110 110 110-49.25 110-110S260.75 26 200 26z" fill="#fc0606"/><g><path fill="none" stroke="#fc0606" stroke-width="12" stroke-miterlimit="10" d="M263.5 50.5l-123 174"/></g><g><path d="M195.64 55.03v34.78h-7.93L183.01 74v15.81h-7.56V55.03h7.56l5.07 15.66V55.03h7.56zM228.03 75.4c0 3.5-.08 5.97-.25 7.42a8.399 8.399 0 01-1.55 3.99c-.87 1.2-2.04 2.13-3.51 2.77-1.48.64-3.19.97-5.16.97-1.86 0-3.53-.3-5.02-.91s-2.67-1.52-3.58-2.74c-.9-1.22-1.44-2.54-1.61-3.97-.17-1.43-.26-3.94-.26-7.52v-5.95c0-3.49.08-5.97.25-7.42.16-1.45.68-2.78 1.55-3.99.87-1.2 2.04-2.13 3.51-2.77 1.47-.64 3.19-.97 5.16-.97 1.86 0 3.53.3 5.02.91 1.48.61 2.67 1.52 3.58 2.74.9 1.22 1.44 2.54 1.61 3.97.17 1.43.26 3.94.26 7.52v5.95zm-9.04-11.43c0-1.62-.09-2.65-.27-3.1-.18-.45-.55-.68-1.11-.68-.47 0-.83.18-1.08.55-.25.37-.38 1.44-.38 3.23v16.24c0 2.02.08 3.27.25 3.74.16.47.55.71 1.15.71.62 0 1.01-.27 1.18-.82.17-.54.26-1.84.26-3.89V63.97zM141.73 107.83v34.78h-9.04v-34.78h9.04zM181.36 107.83v34.78h-7.91l-.01-23.48-3.15 23.48h-5.61l-3.32-22.95-.01 22.95h-7.91v-34.78h11.7c.35 2.09.71 4.56 1.07 7.39l1.28 8.85 2.08-16.24h11.79zM208.73 107.83l5.17 34.78h-9.24l-.49-6.25h-3.24l-.54 6.25h-9.35l4.61-34.78h13.08zm-4.8 22.36c-.46-3.94-.92-8.81-1.38-14.61-.92 6.66-1.5 11.53-1.74 14.61h3.12zM244.29 120.63h-9.04v-3.16c0-1.99-.09-3.24-.26-3.74s-.58-.75-1.22-.75c-.56 0-.94.21-1.14.64-.2.43-.3 1.53-.3 3.31v16.69c0 1.56.1 2.59.3 3.08.2.49.6.74 1.2.74.66 0 1.11-.28 1.34-.84s.35-1.65.35-3.27v-4.12h-1.83v-5.29h10.59v18.67h-5.68l-.84-2.49c-.62 1.07-1.39 1.88-2.33 2.42s-2.05.81-3.32.81c-1.52 0-2.94-.37-4.27-1.11-1.33-.74-2.33-1.65-3.02-2.74s-1.12-2.23-1.29-3.43c-.17-1.2-.26-2.99-.26-5.38v-10.33c0-3.32.18-5.74.54-7.24.36-1.5 1.39-2.88 3.08-4.14 1.7-1.25 3.89-1.88 6.58-1.88 2.65 0 4.85.54 6.6 1.63 1.75 1.09 2.89 2.38 3.42 3.88.53 1.5.79 3.67.79 6.52v1.52zM255.88 107.83h15.08v6.96h-6.04v6.6h5.65V128h-5.65v7.65h6.64v6.96h-15.68v-34.78zM130.35 160.63h15.32v6.96h-6.27v6.6h5.59v6.62h-5.59v14.61h-9.04v-34.79zM176.63 181c0 3.5-.08 5.97-.25 7.42a8.399 8.399 0 01-1.55 3.99c-.87 1.2-2.04 2.13-3.51 2.77-1.48.64-3.19.97-5.16.97-1.86 0-3.53-.3-5.02-.91s-2.67-1.52-3.58-2.74c-.9-1.22-1.44-2.54-1.61-3.97-.17-1.43-.26-3.94-.26-7.52v-5.95c0-3.49.08-5.97.25-7.42.16-1.45.68-2.78 1.55-3.99.87-1.2 2.04-2.13 3.51-2.77 1.48-.64 3.19-.97 5.16-.97 1.86 0 3.53.3 5.02.91s2.67 1.52 3.58 2.74c.9 1.22 1.44 2.54 1.61 3.97.17 1.43.26 3.94.26 7.52V181zm-9.05-11.43c0-1.62-.09-2.65-.27-3.1-.18-.45-.55-.68-1.11-.68-.47 0-.83.18-1.08.55-.25.37-.38 1.44-.38 3.23v16.24c0 2.02.08 3.27.25 3.74.16.47.55.71 1.15.71.62 0 1.01-.27 1.18-.82.17-.54.26-1.84.26-3.89v-15.98zM208.66 160.63v23.25c0 2.64-.09 4.49-.26 5.55-.17 1.07-.68 2.16-1.53 3.29-.85 1.12-1.96 1.98-3.34 2.56-1.38.58-3.01.87-4.89.87-2.08 0-3.91-.34-5.5-1.03s-2.78-1.58-3.57-2.69c-.79-1.1-1.25-2.27-1.4-3.49-.14-1.22-.21-3.8-.21-7.72v-20.58H197v26.08c0 1.52.08 2.49.25 2.91.16.42.5.63 1 .63.57 0 .94-.23 1.11-.7.16-.46.25-1.56.25-3.3v-25.63h9.05zM240.45 160.63v34.78h-7.93l-4.71-15.81v15.81h-7.56v-34.78h7.56l5.07 15.66v-15.66h7.57zM252.18 160.63h6.77c4.37 0 7.32.2 8.86.6 1.54.4 2.71 1.06 3.51 1.98.8.92 1.3 1.94 1.5 3.06.2 1.12.3 3.33.3 6.63v12.18c0 3.12-.15 5.21-.44 6.26-.29 1.05-.81 1.88-1.54 2.47-.73.59-1.63 1.01-2.71 1.25s-2.69.35-4.86.35h-11.41v-34.78zm9.04 5.95v22.88c1.3 0 2.11-.26 2.41-.78.3-.52.45-1.94.45-4.26V170.9c0-1.58-.05-2.58-.15-3.03-.1-.44-.33-.77-.69-.98-.36-.21-1.03-.31-2.02-.31z"/></g></svg>